<svg xmlns="http://www.w3.org/2000/svg" height="40" viewBox="0 96 960 960" width="40"><path d="M460 966.769q-83.385 0-142.462-58.513-59.077-58.512-59.077-141.897V318.667q0-59.468 42.446-101.837 42.445-42.368 102.426-42.368 59.622 0 101.991 42.368 42.368 42.369 42.368 101.991v404.718q0 36.994-25.355 62.42-25.355 25.426-62.359 25.426-37.004 0-62.337-26.247-25.333-26.246-25.333-63.394V318.359h29.23v404.359q0 25.333 16.898 42.385 16.897 17.051 41.564 17.051t41.564-16.974q16.898-16.975 16.898-41.641V318.667q0-47.959-33.604-81.467-33.603-33.508-81.59-33.508-48.499 0-82.037 33.508-33.539 33.508-33.539 81.467V767.18q0 71.179 50.487 120.769 50.488 49.59 121.821 49.59 72 0 122.154-49.667 50.154-49.667 50.154-121.513v-448h29.231v447.846q0 83.385-59.077 141.975Q543.385 966.769 460 966.769Z"/></svg>