<svg xmlns="http://www.w3.org/2000/svg" height="40" viewBox="0 96 960 960" width="40"><path d="M499.589 548.257q21.103-23.539 29.347-52.436 8.243-28.898 8.243-61.77t-8.243-61.513q-8.244-28.641-29.347-52.179 50.411-3.795 85.539 28.769 35.129 32.564 35.129 85.18 0 52.615-35.129 84.923-35.128 32.308-85.539 29.026Zm198.872 292.359v-59.59q0-34.485-13.692-64.255-13.693-29.771-48.103-48.874 78.745 13.744 118.527 41.372 39.782 27.629 39.782 71.757v59.59h-96.514Zm73.847-247.539v-86.154h-86.154v-33.846h86.154v-86.154h33.846v86.154h86.154v33.846h-86.154v86.154h-33.846Zm-426.154-41.846q-49.757 0-83.212-33.712-33.455-33.711-33.455-83.468 0-49.756 33.455-83.211t83.212-33.455q49.756 0 83.468 33.455 33.711 33.455 33.711 83.211 0 49.757-33.711 83.468-33.712 33.712-83.468 33.712ZM67.692 840.616v-60.513q0-24.923 14.577-46.5t39.782-33.347q59.692-26.794 114.205-40.141 54.513-13.346 109.898-13.346 55.384 0 109.564 13.346 54.179 13.347 114.384 40.141 24.693 11.77 39.603 33.347t14.91 46.5v60.513H67.692ZM346.41 517.385q34.949 0 59.013-24.064 24.064-24.065 24.064-59.013 0-34.949-24.064-59.013t-59.269-24.064q-35.206 0-59.013 24.064-23.808 24.064-23.808 59.013 0 34.948 23.779 59.013 23.779 24.064 59.298 24.064ZM101.538 806.77h489.231v-26.667q0-14.502-9.218-27.777T554.41 730q-53.744-25.718-104.092-37.551-50.349-11.834-104.164-11.834-53.816 0-104.087 11.834Q191.795 704.282 137.743 730q-17.615 8.898-26.91 22.205-9.295 13.308-9.295 27.898v26.667ZM346.41 434.308Zm0 372.462Z"/></svg>