<svg xmlns="http://www.w3.org/2000/svg" height="40" viewBox="0 96 960 960" width="40"><path d="M463.077 616.821V248.718h33.846v368.103h-33.846Zm16.923 280q-66.308 0-124.5-25.295-58.192-25.295-101.808-68.654-43.615-43.359-68.654-101.808Q160 642.615 160 576.821q0-72.052 30.846-135.257t85.513-109.359l23.333 23.333q-50.051 40.206-77.949 97.847-27.897 57.641-27.897 123.421 0 118.425 83.615 202.297Q361.077 862.975 480 862.975q119.495 0 202.824-83.872 83.33-83.872 83.33-202.297 0-65.78-27.474-123.832-27.475-58.051-77.552-97.436l23.488-23.333q54.615 45.179 85 108.872Q800 504.769 800 576.821q0 65.794-25.038 124.243-25.039 58.449-68.539 101.808-43.5 43.359-101.692 68.654Q546.539 896.821 480 896.821Z"/></svg>