<svg xmlns="http://www.w3.org/2000/svg" height="40" viewBox="0 96 960 960" width="40"><path d="M520 897.539v-72.308h72.308v72.308H520Zm-72.308-72.308V648.308H520v176.923h-72.308Zm281.539-135.385V576h72.308v113.846h-72.308ZM656.923 576v-72.308h72.308V576h-72.308Zm-426.154 72.308V576h72.308v72.308h-72.308ZM158.461 576v-72.308h72.308V576h-72.308ZM480 326.769v-72.308h72.308v72.308H480ZM190.769 439.077h152.308V286.769H190.769v152.308Zm-32.308 32.308V254.461h216.924v216.924H158.461Zm32.308 393.846h158.462V712.923H190.769v152.308Zm-32.308 32.308V680.615h223.077v216.924H158.461Zm458.462-458.462h152.308V286.769H616.923v152.308Zm-32.308 32.308V254.461h216.924v216.924H584.615Zm72.308 426.154V762.154h-72.308v-72.308h144.616v135.385h72.308v72.308H656.923ZM520 648.308V576h136.923v72.308H520Zm-144.615 0V576h-72.308v-72.308H520V576h-72.308v72.308h-72.307Zm32.307-176.923V326.769H480v72.308h72.308v72.308H407.692Zm-166.154-83.077v-50.77h50.77v50.77h-50.77Zm5.385 420.769v-50.769h50.769v50.769h-50.769Zm420.769-420.769v-50.77h50.77v50.77h-50.77Z"/></svg>